<?xml version="1.0" encoding="utf-8"?>
<!-- Generator: Adobe Illustrator 18.0.0, SVG Export Plug-In . SVG Version: 6.00 Build 0)  -->
<!DOCTYPE svg PUBLIC "-//W3C//DTD SVG 1.1//EN" "http://www.w3.org/Graphics/SVG/1.1/DTD/svg11.dtd">
<svg version="1.1" id="Layer_1" xmlns="http://www.w3.org/2000/svg" xmlns:xlink="http://www.w3.org/1999/xlink" x="0px" y="0px"
	 viewBox="0 0 30 30" enable-background="new 0 0 30 30" xml:space="preserve">
<g>
	<path d="M5.7,12H4.9c-0.4,0-0.7,0.3-0.7,0.7v4.7c0,0.4,0.3,0.7,0.7,0.7h0.8h0h1.5V12L5.7,12C5.8,12,5.7,12,5.7,12z"/>
	<polygon points="8,18.1 15.7,25.8 15.7,4.2 8,11.9 	"/>
	<path d="M18.4,12.2l-1.1,1.1c0.9,0.9,0.9,2.4,0,3.3l1.1,1.1C19.9,16.2,19.9,13.8,18.4,12.2z"/>
	<path d="M20.6,10l-1.1,1.1c2.1,2.1,2.1,5.6,0,7.8l1.1,1.1C23.3,17.2,23.3,12.8,20.6,10z"/>
	<path d="M22.8,7.8l-1.1,1.1c3.4,3.4,3.4,8.9,0,12.2l1.1,1.1C26.8,18.2,26.8,11.8,22.8,7.8z"/>
</g>
</svg>
